<svg xmlns="http://www.w3.org/2000/svg" viewBox="0 0 120 120">
  <circle cx="60.00" cy="67.80" r="35.40" fill="none" stroke="#14503A" stroke-width="8.16"/>
  <line x1="60.00" y1="67.80" x2="51.86" y2="53.70" stroke="#14503A" stroke-width="5.52" stroke-linecap="round"/>
  <line x1="60.00" y1="67.80" x2="71.68" y2="47.57" stroke="#D9912B" stroke-width="5.52" stroke-linecap="round"/>
  <circle cx="60.00" cy="67.80" r="4.32" fill="#14503A"/>
  <line x1="60.00" y1="34.03" x2="60.00" y2="23.76" stroke="#14503A" stroke-width="5.04" stroke-linecap="round"/>
  <polygon points="60.00,24.24 59.90,23.28 59.80,22.33 59.68,21.39 59.54,20.48 59.37,19.59 59.17,18.73 58.93,17.92 58.64,17.14 58.31,16.41 57.92,15.73 57.48,15.11 56.98,14.54 56.43,14.02 55.82,13.55 55.16,13.14 54.44,12.78 53.68,12.47 52.87,12.19 52.02,11.96 51.14,11.76 50.23,11.58 49.30,11.43 48.35,11.29 47.40,11.16 47.40,11.16 47.50,12.12 47.60,13.07 47.72,14.01 47.86,14.92 48.03,15.81 48.23,16.67 48.47,17.48 48.76,18.26 49.09,18.99 49.48,19.67 49.92,20.29 50.42,20.86 50.97,21.38 51.58,21.85 52.24,22.26 52.96,22.62 53.72,22.93 54.53,23.21 55.38,23.44 56.26,23.64 57.17,23.82 58.10,23.97 59.05,24.11 60.00,24.24" fill="#14503A"/>
  <polygon points="60.00,24.24 60.95,24.11 61.90,23.97 62.83,23.82 63.74,23.64 64.62,23.44 65.47,23.21 66.28,22.93 67.04,22.62 67.76,22.26 68.42,21.85 69.03,21.38 69.58,20.86 70.08,20.29 70.52,19.67 70.91,18.99 71.24,18.26 71.53,17.48 71.77,16.67 71.97,15.81 72.14,14.92 72.28,14.01 72.40,13.07 72.50,12.12 72.60,11.16 72.60,11.16 71.65,11.29 70.70,11.43 69.77,11.58 68.86,11.76 67.98,11.96 67.13,12.19 66.32,12.47 65.56,12.78 64.84,13.14 64.18,13.55 63.57,14.02 63.02,14.54 62.52,15.11 62.08,15.73 61.69,16.41 61.36,17.14 61.07,17.92 60.83,18.73 60.63,19.59 60.46,20.48 60.32,21.39 60.20,22.33 60.10,23.28 60.00,24.24" fill="#D9912B"/>
</svg>
